<svg xmlns="http://www.w3.org/2000/svg" width="600" height="600" viewBox="0 0 600 600"><circle cx="300" cy="300" r="300" fill="#fff"/><circle cx="300" cy="300" r="191.32" fill="#da1f27"/><path d="M467.47,207.46c-1.17-2.12-2.37-4.21-3.62-6.27l-43,58.7-75.06-24.07,46.1,63.93-46.1,63.93,75.06-24.07L464,398.53c1.19-2,2.34-4,3.46-6l.25-68.17,22.85-7.51c.48-5.56.75-11.18.75-16.87,0-5.86-.28-11.65-.8-17.38l-22.8-7.5Z" fill="#fbdc01"/><path d="M130.53,388.84,265.26,300l-134.4-89.45a191.5,191.5,0,0,0-.33,178.29Z" fill="#fbdc01"/><path d="M405.78,259.18a188.49,188.49,0,0,0-20.49-54.4c-20.6-35.93-50.1-54.44-85.55-54.44h-.24c-35.44,0-65.18,18.51-85.78,54.44a188.49,188.49,0,0,0-20.49,54.4,2.85,2.85,0,0,0,2.49,3.22c1.18.23,28.75,6.18,28.75,37.69s-22.8,36.94-23.76,37.16a3,3,0,0,0,.61,5.89H397.68a3,3,0,0,0,.63-5.89c-1-.22-23.77-5.64-23.77-37.16s27.75-37.31,28.92-37.53A2.87,2.87,0,0,0,405.78,259.18Z" fill="#fff"/><path d="M398.61,343.14h-198a3,3,0,0,1-.62-5.89c1-.22,23.95-5.64,23.95-37.16S196,262.87,194.85,262.64a3,3,0,0,1-2.37-3.46,187.49,187.49,0,0,1,20.65-54.4c20.77-35.93,50.64-54.93,86.37-54.93h.25c35.73,0,65.59,19,86.36,54.93a187.34,187.34,0,0,1,20.66,54.4,3,3,0,0,1-2.38,3.46c-1.18.23-29.12,5.94-29.12,37.45s23,36.94,24,37.16a3,3,0,0,1-.63,5.89Zm-185.35-6H386c-7.85-5.77-16.66-16.77-16.66-37.09,0-30,22.77-39.92,31-42.52a187.56,187.56,0,0,0-19.47-49.95c-19.92-34.38-47.22-51.81-81.13-51.81h-.25c-33.91,0-61.21,17.43-81.13,51.81a187.2,187.2,0,0,0-19.47,49.95c8.26,2.6,31,12.47,31,42.52C229.93,320.41,221.12,331.41,213.26,337.18Z" fill="#231f20"/><path d="M339.05,346.88V491.81c21.14-3.8,41.11-13.34,59.32-23.14V346.88Z" fill="#fff" stroke="#231f20" stroke-miterlimit="10" stroke-width="6"/><path d="M299.5,496.66c12.29,0,27.88-2.78,39.55-4.85V346.88H260V491.81C273.84,494.79,285.39,496.66,299.5,496.66Z" fill="#fff" stroke="#231f20" stroke-miterlimit="10" stroke-width="6"/><path d="M260,346.88H200.64V468.67A199.75,199.75,0,0,0,260,491.81Z" fill="#fff" stroke="#231f20" stroke-miterlimit="10" stroke-width="6"/><path d="M340.56,341.64H254l2.39-3.8c.14-.23,14.16-23,8.7-49.4s-27.13-39.79-27.34-39.92l-1.58-1,.46-1.79A103.75,103.75,0,0,1,250,217.18c12.75-18.92,29.89-28.92,49.55-28.92s36.8,10,49.56,28.92a103.2,103.2,0,0,1,13.35,28.59l.47,1.79-1.58,1c-.26.16-21.9,13.64-27.34,39.92s8.56,49.17,8.7,49.4l2.38,3.8Zm-77.91-5h73.71c-4-7.91-11.84-27.14-7.26-49.25,5.06-24.44,22.54-38.28,28-42.09-2.88-9.12-18.52-52.12-57.61-52.12s-54.73,43-57.6,52.12c5.46,3.81,23,17.65,28,42.09C274.49,309.54,266.65,328.77,262.65,336.68Z" fill="#231f20"/><line x1="200.64" y1="457.06" x2="398.37" y2="457.06" fill="none" stroke="#231f20" stroke-miterlimit="10" stroke-width="3"/><circle cx="299.5" cy="457.06" r="7.46" fill="#fff" stroke="#231f20" stroke-miterlimit="10" stroke-width="2"/><circle cx="322.72" cy="457.06" r="7.46" fill="#fff" stroke="#231f20" stroke-miterlimit="10" stroke-width="2"/><circle cx="219.37" cy="457.06" r="7.46" fill="#fff" stroke="#231f20" stroke-miterlimit="10" stroke-width="2"/><circle cx="241.23" cy="457.06" r="7.46" fill="#fff" stroke="#231f20" stroke-miterlimit="10" stroke-width="2"/><circle cx="276.28" cy="457.06" r="7.46" fill="#fff" stroke="#231f20" stroke-miterlimit="10" stroke-width="2"/><circle cx="357.78" cy="457.06" r="7.46" fill="#fff" stroke="#231f20" stroke-miterlimit="10" stroke-width="2"/><circle cx="379.64" cy="457.06" r="7.46" fill="#fff" stroke="#231f20" stroke-miterlimit="10" stroke-width="2"/><circle cx="299.5" cy="236.38" r="3.68" fill="#231f20"/><circle cx="299.5" cy="259.03" r="3.68" fill="#231f20"/><circle cx="276.86" cy="236.38" r="3.68" fill="#231f20"/><circle cx="322.15" cy="236.38" r="3.68" fill="#231f20"/><circle cx="299.5" cy="213.74" r="3.68" fill="#231f20"/><circle cx="250.65" cy="243.03" r="3.04" fill="#231f20"/><circle cx="271.99" cy="331.11" r="3.04" fill="#231f20"/><circle cx="327.01" cy="331.11" r="3.04" fill="#231f20"/><circle cx="299.5" cy="198.2" r="3.04" fill="#231f20"/><circle cx="348.36" cy="243.1" r="3.04" fill="#231f20"/><path d="M299.5,339.16H196.16a1,1,0,0,0-1,1v5.72a1,1,0,0,0,1,1H402.84a1,1,0,0,0,1-1v-5.72a1,1,0,0,0-1-1Z" fill="#fffeff"/><path d="M193.18,347.86v-9.69a1,1,0,0,1,1-1H404.83a1,1,0,0,1,1,1v9.69a1,1,0,0,1-1,1H194.18A1,1,0,0,1,193.18,347.86Zm5-3H400.86a1,1,0,0,0,1-1v-1.75a1,1,0,0,0-1-1H198.15a1,1,0,0,0-1,1v1.75A1,1,0,0,0,198.15,344.89Z" fill="#231f20"/><rect x="210.48" y="369.33" width="39.63" height="61.73" fill="none" stroke="#231f20" stroke-miterlimit="10" stroke-width="2"/><rect x="218.24" y="364.73" width="24.11" height="70.92" fill="#fff" stroke="#231f20" stroke-miterlimit="10" stroke-width="2"/><rect x="226.95" y="385.01" width="6.69" height="6.69" fill="#231f20"/><rect x="226.95" y="393.77" width="2.46" height="21.98" fill="#231f20"/><rect x="231.19" y="393.77" width="2.46" height="21.98" fill="#231f20"/><rect x="348.9" y="369.33" width="39.63" height="61.73" fill="none" stroke="#231f20" stroke-miterlimit="10" stroke-width="2"/><rect x="356.65" y="364.73" width="24.11" height="70.92" fill="#fff" stroke="#231f20" stroke-miterlimit="10" stroke-width="2"/><rect x="365.36" y="385.01" width="6.69" height="6.69" fill="#231f20"/><rect x="365.36" y="393.77" width="2.46" height="21.98" fill="#231f20"/><rect x="369.6" y="393.77" width="2.46" height="21.98" fill="#231f20"/><rect x="303.8" y="394.24" width="4.21" height="21.12" fill="#231f20"/><rect x="297.4" y="394.33" width="4.21" height="21.02" fill="#231f20"/><rect x="291" y="394.24" width="4.21" height="21.12" fill="#231f20"/><rect x="291" y="385.03" width="6.67" height="6.67" fill="#231f20"/><rect x="301.34" y="385.03" width="6.67" height="6.67" fill="#231f20"/><rect x="270.27" y="364.73" width="58.47" height="70.92" fill="none" stroke="#231f20" stroke-miterlimit="10" stroke-width="2"/><rect x="283.59" y="378.84" width="31.83" height="42.7" fill="none" stroke="#231f20" stroke-miterlimit="10" stroke-width="2"/><path d="M300,99.75C189.41,99.75,99.75,189.41,99.75,300S189.41,500.25,300,500.25,500.25,410.59,500.25,300,410.59,99.75,300,99.75Zm0,391.57c-105.66,0-191.32-85.66-191.32-191.32S194.34,108.68,300,108.68,491.32,194.34,491.32,300,405.66,491.32,300,491.32Z"/><path d="M300,0C134.31,0,0,134.31,0,300S134.31,600,300,600,600,465.69,600,300,465.69,0,300,0Zm0,591.12C139.22,591.12,8.88,460.78,8.88,300S139.22,8.88,300,8.88,591.12,139.22,591.12,300,460.78,591.12,300,591.12Z"/><path d="M222,70.08l-2.38-7A250.81,250.81,0,0,0,64.85,214.59l7,2.53A243.37,243.37,0,0,1,222,70.08Z"/><path d="M379.65,62.83l-2.35,7a243.34,243.34,0,0,1,150.77,147l7-2.54A250.8,250.8,0,0,0,379.65,62.83Z"/><path d="M79.34,255.13l2.36-12.44,4.49.85-5.75,30.28L76,273l2.37-12.49-36.4-6.92,1-5.33Z" fill="#231f20"/><path d="M39.27,272.24,69,275.07l-.51,5.41-29.76-2.83Zm37.54,9.65a3.37,3.37,0,0,1,.64-6.7,3.31,3.31,0,0,1,3.06,3.7A3.23,3.23,0,0,1,76.81,281.89Z" fill="#231f20"/><path d="M67.93,314.83c-2.16-.09-4.57-.17-8.21-.11L42.37,315c-6.85.11-11.07-1.18-13.71-4s-3.7-7-3.76-10.8c-.06-3.58.74-7.55,2.31-10l4.15,1.29a16.86,16.86,0,0,0-2.2,8.8c.09,5.56,3.06,9.59,10.59,9.46l3.34-.05v-.12a10.68,10.68,0,0,1-5.15-9.43c-.12-7.41,6.09-12.82,14.36-12.95,10.13-.17,16,6.34,16.09,13.2.08,5.18-2.59,8.07-5,9.4v.13l4.52.17Zm-11.88-5.42a8,8,0,0,0,8.08-8c-.08-5.19-4.53-8.82-11.44-8.71-5.87.1-10.7,3.14-10.6,9a7.94,7.94,0,0,0,5.68,7.44,9.4,9.4,0,0,0,2.91.38Z" fill="#231f20"/><path d="M59.49,323.87c3.49-.43,6.49-.85,9.22-1.37l.58,4.72-5.8.89,0,.24c4.15.87,7,3.81,7.49,7.43a5.35,5.35,0,0,1,0,1.55l-5.08.62a8.44,8.44,0,0,0,0-1.86c-.46-3.8-3.67-6.15-7.81-6.39a14.73,14.73,0,0,0-2.54.06l-15.81,1.92-.65-5.33Z" fill="#231f20"/><path d="M45.88,364.94l3.57-1.27,0-.18A11.12,11.12,0,0,1,43,355.58c-1.35-5.89,2.11-9.86,6.32-10.83,7-1.62,12.33,3.75,14.86,15l.61-.14c2.4-.55,6.58-2.21,5.21-8.17a14.87,14.87,0,0,0-3.91-7.08l3.21-2a18.51,18.51,0,0,1,4.79,9c2,8.91-3.53,12.48-9.36,13.82l-10.9,2.51A42.17,42.17,0,0,0,47,369.76Zm14.68-4.2c-1.21-5.81-3.74-12.13-9.4-10.83a4.8,4.8,0,0,0-3.9,6.16A7.44,7.44,0,0,0,53.75,362a5.74,5.74,0,0,0,1.76-.09Z" fill="#231f20"/><path d="M78.94,372,64.6,384.17C63,385.48,61,387,59.52,388.06l0,.12c1.87-.09,4.23-.3,6.52-.34l18.5-.46,2,5.4-22.8-.35c-11-.13-16.81-.82-21.1-3.2a14.78,14.78,0,0,1-5.59-5.06l3.83-2.84A14.2,14.2,0,0,0,45,384.88a16.52,16.52,0,0,0,7.25,2.22,3.85,3.85,0,0,0,1.37,0,4.89,4.89,0,0,0,1.21-.84l22.07-19.83Z" fill="#231f20"/><path d="M69.48,425l3.15-2.11-.08-.17a11.1,11.1,0,0,1-8.13-6.09c-2.77-5.38-.39-10.08,3.45-12,6.42-3.31,12.88.6,18.1,10.89l.55-.28c2.2-1.13,5.84-3.77,3-9.2A14.94,14.94,0,0,0,84,400.1l2.62-2.73a18.54,18.54,0,0,1,6.85,7.51c4.18,8.13-.35,13-5.67,15.7l-9.94,5.11a42.84,42.84,0,0,0-6.15,3.72Zm13.2-7.69c-2.6-5.33-6.61-10.84-11.78-8.18a4.8,4.8,0,0,0-2.26,6.93,7.42,7.42,0,0,0,7.75,4.13,5.56,5.56,0,0,0,1.68-.51Z" fill="#231f20"/><path d="M95.66,427.14c2.53-1.77,4.57-3.27,6.48-4.84l2.77,3.95L101,429.33l.07.1a11,11,0,0,1,10.27,4.87c2.37,3.39,4,10.06-4.36,15.95L92.41,460.49,89.29,456l14.11-9.89c3.94-2.76,6.2-6.53,3.26-10.73a7.72,7.72,0,0,0-8.73-2.78,7.93,7.93,0,0,0-2.29,1.15L80.93,444.1l-3.12-4.45Z" fill="#231f20"/><path d="M132.49,500.31a26.67,26.67,0,0,1-9.35-6.1c-8.54-8-9.88-19.5-.52-29.42,8.94-9.48,21.42-9.85,30.81-1,3.77,3.56,5.39,6.61,5.92,8.13l-3.95,2.3a19.56,19.56,0,0,0-4.93-7c-7.1-6.69-16.09-6.6-23.59,1.35-7,7.41-7.21,16.2.16,23.14a21.45,21.45,0,0,0,7.56,4.76Z" fill="#231f20"/><path d="M170.13,510.35c-6.35,9-15.38,8.6-21.3,4.45-6.62-4.64-8.33-13.08-2.9-20.82,5.74-8.19,14.47-9.23,21.24-4.48C174.2,494.42,175.38,502.86,170.13,510.35ZM150.53,497c-3.75,5.36-3.5,11.57.84,14.61s10.24,1.22,14.1-4.29c2.91-4.15,4.52-10.86-.74-14.55S153.79,492.34,150.53,497Z" fill="#231f20"/><path d="M180.39,509.35c1.28-2.81,2.28-5.13,3.14-7.46l4.32,2-1.78,4.49.17.07a10.29,10.29,0,0,1,10.82-1.08,8.82,8.82,0,0,1,5.2,9l.11,0a12.36,12.36,0,0,1,4.65-2.15,10.2,10.2,0,0,1,6.88.84c3.6,1.65,7.85,6.45,3.53,15.88l-7.33,16-4.83-2.21,7-15.38c2.39-5.22,1.92-9.24-2.06-11.07a7,7,0,0,0-7.9,1.82,9.22,9.22,0,0,0-1.53,2.29l-7.69,16.78L188.31,537l7.46-16.28c2-4.32,1.52-8.34-2.24-10.06-3.09-1.42-6.47,0-8.39,2.13a7.58,7.58,0,0,0-1.5,2.24l-7.51,16.39-4.83-2.21Z" fill="#231f20"/><path d="M228.69,530.25c.64-3,1.11-5.51,1.44-8l4.65,1L234,528l.18,0a10.32,10.32,0,0,1,10.33-3.43,8.86,8.86,0,0,1,7,7.62l.12,0a12.4,12.4,0,0,1,4.07-3.11,10.18,10.18,0,0,1,6.9-.68c3.87.82,9.07,4.57,6.91,14.72l-3.65,17.22-5.2-1.1,3.52-16.56c1.19-5.61-.15-9.43-4.44-10.34a7,7,0,0,0-7.3,3.5,8.61,8.61,0,0,0-1,2.57l-3.83,18.06-5.2-1.1,3.72-17.52c1-4.65-.35-8.47-4.4-9.33-3.32-.71-6.3,1.44-7.71,3.92a7.61,7.61,0,0,0-1,2.51l-3.74,17.63-5.19-1.1Z" fill="#231f20"/><path d="M304.84,553.77c-.09,3.09-.1,5.81,0,8.16l-4.81-.14-.18-4.88h-.12a11.28,11.28,0,0,1-10,5.28c-4.69-.13-10.23-2.88-9.94-13.37l.48-17.47,5.43.15L285.23,548c-.15,5.68,1.47,9.55,6.41,9.69a7.64,7.64,0,0,0,7.86-7.5L300,531.9l5.43.15Z" fill="#231f20"/><path d="M314.81,539.73c-.35-3.07-.7-5.57-1.17-8l4.78-.55.88,4.87h.12a11,11,0,0,1,9.17-6.72c4.11-.47,10.77,1.25,12,11.43l2,17.73-5.39.62-2-17.11c-.55-4.79-2.79-8.57-7.88-8a8,8,0,0,0-6.68,8.91l2.06,17.85-5.4.62Z" fill="#231f20"/><path d="M351.51,517.34a3.37,3.37,0,0,1-6.57,1.46,3.31,3.31,0,0,1,2.58-4A3.23,3.23,0,0,1,351.51,517.34ZM353.92,556l-6.49-29.17,5.3-1.18,6.49,29.17Z" fill="#231f20"/><path d="M365,513.45l2.49,8.21,7.45-2.25,1.19,4-7.45,2.25,4.67,15.43c1.07,3.55,2.68,5.26,5.58,4.38a11.87,11.87,0,0,0,2.91-1.27l1.41,3.83a13.25,13.25,0,0,1-4.39,2.11,7.56,7.56,0,0,1-6.28-.49c-1.94-1.09-3.24-3.47-4.26-6.84l-4.72-15.61-4.43,1.34-1.2-4,4.43-1.34-2.07-6.86Z" fill="#231f20"/><path d="M382.73,516.56l12.93,13.69c1.4,1.55,3,3.42,4.16,4.88l.11,0c-.19-1.87-.51-4.21-.68-6.49l-1.41-18.46,5.29-2.25.83,22.8c.44,11,.05,16.82-2.1,21.23a14.8,14.8,0,0,1-4.76,5.85l-3-3.68a14.25,14.25,0,0,0,3.33-4.3,16.43,16.43,0,0,0,1.84-7.36,3.88,3.88,0,0,0-.11-1.36,4.34,4.34,0,0,0-.9-1.16l-21-21Z" fill="#231f20"/><path d="M449,496.52c6.17,9.17,2.51,17.44-3.49,21.47-6.71,4.52-15.2,3.08-20.47-4.76-5.58-8.3-3.43-16.82,3.44-21.44C435.62,487,443.92,488.93,449,496.52ZM429.52,510c3.65,5.43,9.53,7.43,13.94,4.46s4.81-9.11,1.05-14.7c-2.82-4.2-8.51-8.11-13.84-4.53S426.35,505.3,429.52,510Z" fill="#231f20"/><path d="M465.39,502.43l-16.64-19.66-3.2,2.71-2.67-3.16,3.2-2.71-.92-1.09c-2.71-3.2-4.47-6.72-4.1-10.2a10.44,10.44,0,0,1,3.77-6.83,12.76,12.76,0,0,1,4.1-2.33l2.14,3.69a8,8,0,0,0-3.08,1.71c-3.53,3-1.8,6.86,1.16,10.35l1,1.23,5.52-4.67,2.67,3.16-5.51,4.67L469.49,499Z" fill="#231f20"/><path d="M499.62,439.39c-4.74-3.36-10.44-7.41-14.46-10.68l-.12.14c2.94,4.15,5.93,8.73,9.13,13.94l11.25,18.31-2.53,3.19-19.72-7c-5.82-2.1-11.07-4.13-15.67-6.28l-.07.09c4,3.32,9.26,7.9,13.92,12.07l13.29,12-3.19,4L460.65,451l4.26-5.37,20.18,7c5.09,1.83,9.56,3.56,13.59,5.42l.12-.14c-2.64-3.44-5.3-7.44-8.26-12.15l-11.17-18.32,4.26-5.37,34.23,23.84-3.27,4.11Z" fill="#231f20"/><path d="M493.94,410.13a3.36,3.36,0,0,1-3.41,5.8,3.32,3.32,0,0,1-1.21-4.65A3.23,3.23,0,0,1,493.94,410.13Zm29.94,24.62L498.11,419.6l2.76-4.68,25.77,15.14Z" fill="#231f20"/><path d="M540.33,400.39a20,20,0,0,1-2.11,8.5c-3.85,8.15-11.89,10.84-20.15,6.94s-11.66-12.48-7.49-21.3a18.2,18.2,0,0,1,4.62-6.15l3.27,2.91a12.56,12.56,0,0,0-4,5.09c-2.93,6.19.07,11.71,5.71,14.37,6.25,3,12,.76,14.54-4.6a15.5,15.5,0,0,0,1.51-6.66Z" fill="#231f20"/><path d="M503.24,378.34l1.65-5.17,17.76,5.66,0-.11a10,10,0,0,1-2.46-4.87,11.14,11.14,0,0,1,.22-5.77c1.22-3.82,5.52-9.19,15.34-6.05l16.94,5.4-1.65,5.18-16.35-5.22c-4.59-1.46-9-1-10.57,3.89a7.81,7.81,0,0,0,3,8.59,6.58,6.58,0,0,0,2.36,1.14l17.17,5.48L545,391.67Z" fill="#231f20"/><path d="M518.91,342.37a3.37,3.37,0,0,1-1.37,6.59,3.31,3.31,0,0,1-2.63-4A3.22,3.22,0,0,1,518.91,342.37Zm36.26,13.7L525.91,350l1.1-5.32,29.27,6.07Z" fill="#231f20"/><path d="M531.42,310.57c2.13.34,4.52.7,8.14,1.07l17.27,1.73c6.82.69,10.86,2.46,13.15,5.61s2.86,7.42,2.48,11.17c-.36,3.57-1.61,7.41-3.45,9.65L565,338a16.88,16.88,0,0,0,3.21-8.49c.55-5.53-1.93-9.87-9.42-10.63l-3.32-.33v.12a10.65,10.65,0,0,1,4,10c-.74,7.38-7.54,12-15.77,11.2-10.08-1-15.13-8.16-14.45-15,.52-5.16,3.51-7.72,6.1-8.76V316l-4.46-.7Zm11.17,6.77a7.95,7.95,0,0,0-9,7c-.52,5.17,3.47,9.29,10.35,10,5.84.59,11-1.87,11.58-7.71a8,8,0,0,0-4.78-8,9.35,9.35,0,0,0-2.84-.72Z" fill="#231f20"/><path d="M560.82,284.81l-3.75.56v.19a11.13,11.13,0,0,1,4.76,9c.2,6-4,9.28-8.27,9.43-7.22.24-11.39-6-11.72-17.59l-.62,0c-2.47.09-6.89.92-6.68,7a14.94,14.94,0,0,0,2.48,7.7l-3.53,1.35a18.52,18.52,0,0,1-3-9.72c-.31-9.13,5.85-11.57,11.84-11.77l11.17-.38a43.28,43.28,0,0,0,7.14-.73Zm-15.22,1.32c.08,5.93,1.36,12.62,7.16,12.43a4.82,4.82,0,0,0,5-5.3,7.43,7.43,0,0,0-5.25-7.05,5.49,5.49,0,0,0-1.73-.25Z" fill="#231f20"/><path d="M538.07,271.69c-3.05.52-5.53,1-7.94,1.61l-.81-4.75,4.82-1.14,0-.12a11,11,0,0,1-7.2-8.79c-.7-4.08.65-10.83,10.75-12.55l17.6-3,.91,5.36-17,2.9c-4.75.81-8.4,3.25-7.54,8.3a7.72,7.72,0,0,0,6.71,6.25,7.9,7.9,0,0,0,2.55-.06l17.72-3,.91,5.36Z" fill="#231f20"/><path d="M251.13,38.22l-12.07,2.13L238.29,36l29.39-5.19.77,4.35-12.14,2.15,6.23,35.26-5.18.92Z" fill="#231f20"/><path d="M304.41,67.71a26,26,0,0,1-10.54,2.42c-11.35.55-20.24-6.19-20.87-19.36-.61-12.58,7.52-21.52,20-22.13,5-.24,8.24.68,9.65,1.33l-1,4.29A19,19,0,0,0,293.39,33c-9.44.46-15.42,6.79-14.91,17.34.48,9.84,6.46,15.88,16.26,15.41a21.06,21.06,0,0,0,8.4-2.08Z" fill="#231f20"/><path d="M345.25,55.4c.38-5.6.84-12.34,1.5-17.31l-.18,0c-1.93,4.51-4.2,9.29-6.89,14.55l-9.42,18.52-3.92-.48-4.15-19.8C321,45,320,39.65,319.44,34.77h-.12c-.72,5-1.83,11.62-2.92,17.56l-3.15,17-4.92-.6L316,29.12l6.59.8L327,50.06c1.07,5.12,1.9,9.67,2.4,13.94l.18,0c1.5-3.91,3.46-8.12,5.85-12.94l9.47-18.45,6.6.8-2.37,40.24-5-.62Z" fill="#231f20"/></svg>